<svg width="47" height="30" viewBox="0 0 47 30" fill="none" xmlns="http://www.w3.org/2000/svg">
<path d="M22.4082 28.9896L25.1 22.6811M29.9266 11.3692L34.3509 1L46.0006 28.9896H40.0659C39.2355 29.0622 37.3842 28.7866 36.6222 27.1043C36.3408 26.4829 35.6149 24.7936 34.7148 22.6811M29.9266 11.3692L25.1 22.6811M29.9266 11.3692C31.1338 14.2348 33.1781 19.0746 34.7148 22.6811M25.1 22.6811H34.7148" stroke="#F2EDDC" stroke-width="2" stroke-linecap="round" stroke-linejoin="round"/>
<path d="M10.1854 28.9867C5.86574 28.7687 2.81048 27.3711 1.39959 25.7157C0.594217 24.7707 1.25314 3.3997 1.25314 3.3997C1.30196 2.64857 1.83888 1.11722 3.59605 1.00092H7.40326C8.30625 0.976689 10.1122 1.42252 10.1122 3.3997C10.1122 5.37688 10.161 21.2815 10.1854 28.9867ZM10.1854 28.9867C14.4561 29.2023 18.5791 26.7333 19.191 25.7883C19.8028 24.8434 19.191 1.00092 19.191 1.00092" stroke="#F2EDDC" stroke-width="2" stroke-linecap="round" stroke-linejoin="round"/>
</svg>
