<svg width="268" height="197" viewBox="0 0 268 197" fill="none" xmlns="http://www.w3.org/2000/svg">
<path d="M63.2137 194.909C34.4285 193.406 14.0692 183.776 4.66745 172.369C-0.699294 165.857 3.69158 18.5982 3.69158 18.5982C4.01687 13.4224 7.59476 2.87047 19.304 2.06906H44.6741C50.6914 1.9021 62.7259 4.97417 62.7259 18.5982C62.7259 32.2221 63.0511 141.815 63.2137 194.909ZM63.2137 194.909C91.6722 196.394 119.146 179.381 123.224 172.87C125.141 169.808 125.224 135.51 124.774 100.031M124.774 100.031C124.267 60.0639 123.083 18.5982 123.083 18.5982C123.246 12.2533 122.106 1.06305 115.759 2.06272H105.506C100.787 3.0624 93.3004 9.46032 101.112 27.0546C108.927 39.2173 124.599 70.8404 124.774 100.031Z" stroke="#F2EDDC" stroke-width="4" stroke-linecap="round" stroke-linejoin="round"/>
<path d="M214.626 2H155V195C158.769 195 170.729 195 188.411 195C206.093 195 213.255 176.667 214.626 167.5V88M214.626 2H265C265.833 8.66667 265.9 21.8 259.5 21C251.5 20 239.752 7.5 214.626 2ZM214.626 2V88M214.626 88H265" stroke="#F2EDDC" stroke-width="4" stroke-linecap="round" stroke-linejoin="round"/>
</svg>
