<svg width="54" height="54" viewBox="0 0 54 54" fill="none" xmlns="http://www.w3.org/2000/svg">
<g clip-path="url(#clip0_209_1190)">
<path fill-rule="evenodd" clip-rule="evenodd" d="M38.1111 2C41.7947 2 45.3274 3.46329 47.932 6.06796C50.5367 8.67263 52 12.2053 52 15.8889V38.1111C52 41.7947 50.5367 45.3274 47.932 47.932C45.3274 50.5367 41.7947 52 38.1111 52H15.8889C12.2053 52 8.67263 50.5367 6.06796 47.932C3.46329 45.3274 2 41.7947 2 38.1111V15.8889C2 12.2053 3.46329 8.67263 6.06796 6.06796C8.67263 3.46329 12.2053 2 15.8889 2H38.1111ZM38.1111 7.55556H15.8889C13.6788 7.55556 11.5591 8.43353 9.99633 9.99633C8.43353 11.5591 7.55556 13.6788 7.55556 15.8889V38.1111C7.55556 40.3212 8.43353 42.4409 9.99633 44.0037C11.5591 45.5665 13.6788 46.4444 15.8889 46.4444H38.1111C40.3212 46.4444 42.4409 45.5665 44.0037 44.0037C45.5665 42.4409 46.4444 40.3212 46.4444 38.1111V15.8889C46.4444 13.6788 45.5665 11.5591 44.0037 9.99633C42.4409 8.43353 40.3212 7.55556 38.1111 7.55556ZM27 15.8889C29.9468 15.8889 32.773 17.0595 34.8567 19.1433C36.9405 21.227 38.1111 24.0531 38.1111 27C38.1111 29.9468 36.9405 32.773 34.8567 34.8567C32.773 36.9405 29.9468 38.1111 27 38.1111C24.0531 38.1111 21.227 36.9405 19.1433 34.8567C17.0595 32.773 15.8889 29.9468 15.8889 27C15.8889 24.0531 17.0595 21.227 19.1433 19.1433C21.227 17.0595 24.0531 15.8889 27 15.8889ZM27 21.4444C25.5266 21.4444 24.1135 22.0298 23.0716 23.0716C22.0298 24.1135 21.4444 25.5266 21.4444 27C21.4444 28.4734 22.0298 29.8865 23.0716 30.9284C24.1135 31.9702 25.5266 32.5556 27 32.5556C28.4734 32.5556 29.8865 31.9702 30.9284 30.9284C31.9702 29.8865 32.5556 28.4734 32.5556 27C32.5556 25.5266 31.9702 24.1135 30.9284 23.0716C29.8865 22.0298 28.4734 21.4444 27 21.4444ZM39.5 11.7222C40.2367 11.7222 40.9433 12.0149 41.4642 12.5358C41.9851 13.0567 42.2778 13.7633 42.2778 14.5C42.2778 15.2367 41.9851 15.9432 41.4642 16.4642C40.9433 16.9851 40.2367 17.2778 39.5 17.2778C38.7633 17.2778 38.0567 16.9851 37.5358 16.4642C37.0149 15.9432 36.7222 15.2367 36.7222 14.5C36.7222 13.7633 37.0149 13.0567 37.5358 12.5358C38.0567 12.0149 38.7633 11.7222 39.5 11.7222Z" fill="#f2eddc"/>
</g>
<defs>
<clipPath id="clip0_209_1190">
<rect width="54" height="54" fill="white"/>
</clipPath>
</defs>
</svg>
