<svg width="54" height="54" viewBox="0 0 54 54" fill="none" xmlns="http://www.w3.org/2000/svg">
<path d="M16.9212 13.9545C16.503 13.8936 16.0766 13.9778 15.7129 14.193H15.6814C14.8377 14.688 14.0772 15.3113 13.4292 16.0448C12.8892 16.668 12.5967 17.298 12.5202 17.9055C12.4752 18.2655 12.5067 18.63 12.6124 18.9742L12.6529 18.9967C13.2604 20.781 14.0524 22.4978 15.0199 24.1132C16.2674 26.3824 17.8026 28.4809 19.5874 30.357L19.6414 30.4335L19.7269 30.4965L19.7787 30.5573L19.8417 30.6112C21.7243 32.4014 23.8278 33.9439 26.1012 35.2013C28.6999 36.6165 30.2772 37.2847 31.2244 37.5637V37.5773C31.5012 37.6628 31.7532 37.701 32.0074 37.701C32.8141 37.6414 33.5777 37.3135 34.1764 36.7695C34.9077 36.1215 35.5264 35.3588 36.0079 34.5105V34.4948C36.4602 33.6398 36.3072 32.8343 35.6547 32.2875C34.344 31.1423 32.9268 30.1252 31.4224 29.25C30.4144 28.7033 29.3907 29.034 28.9767 29.5875L28.0924 30.7035C27.6379 31.257 26.8144 31.1805 26.8144 31.1805L26.7919 31.194C20.6472 29.6258 19.0069 23.4045 19.0069 23.4045C19.0069 23.4045 18.9304 22.5585 19.4997 22.1265L20.6067 21.2355C21.1377 20.8035 21.5067 19.782 20.9374 18.774C20.068 17.2682 19.0529 15.8514 17.9067 14.544C17.6567 14.2363 17.3061 14.0267 16.9167 13.9523L16.9212 13.9545ZM27.3049 11.25C27.0065 11.25 26.7204 11.3685 26.5094 11.5795C26.2984 11.7905 26.1799 12.0766 26.1799 12.375C26.1799 12.6734 26.2984 12.9595 26.5094 13.1705C26.7204 13.3815 27.0065 13.5 27.3049 13.5C30.1489 13.5 32.5114 14.4292 34.3812 16.2112C35.3419 17.1855 36.0912 18.3398 36.5817 19.6043C37.0744 20.871 37.2994 22.2233 37.2409 23.5778C37.2284 23.8761 37.3349 24.1672 37.537 24.3871C37.7391 24.6069 38.0203 24.7375 38.3187 24.75C38.617 24.7625 38.9081 24.656 39.128 24.4539C39.3478 24.2518 39.4784 23.9706 39.4909 23.6722C39.5607 22.0061 39.2841 20.3436 38.6787 18.7897C38.0706 17.2286 37.1485 15.8088 35.9697 14.6183L35.9472 14.5957C33.6274 12.3795 30.6934 11.25 27.3049 11.25Z" fill="#f2eddc"/>
<path d="M27.2666 15.0022C26.9682 15.0022 26.6821 15.1208 26.4711 15.3318C26.2601 15.5427 26.1416 15.8289 26.1416 16.1272C26.1416 16.4256 26.2601 16.7118 26.4711 16.9227C26.6821 17.1337 26.9682 17.2522 27.2666 17.2522H27.3049C29.3569 17.3985 30.8509 18.0825 31.8971 19.2052C32.9704 20.3618 33.5261 21.7995 33.4834 23.577C33.4765 23.8754 33.5884 24.1642 33.7946 24.3801C34.0007 24.5959 34.2841 24.721 34.5825 24.7279C34.8808 24.7347 35.1697 24.6228 35.3855 24.4167C35.6014 24.2105 35.7265 23.9271 35.7334 23.6287C35.7874 21.2955 35.0359 19.2817 33.5464 17.6752V17.6707C32.0231 16.0372 29.9329 15.1732 27.4174 15.0045L27.3791 15L27.2666 15.0022Z" fill="#f2eddc"/>
<path d="M27.2239 18.771C27.0733 18.7577 26.9216 18.7749 26.7779 18.8215C26.6341 18.8681 26.5012 18.9433 26.3871 19.0424C26.273 19.1415 26.1801 19.2626 26.1138 19.3985C26.0476 19.5343 26.0094 19.6821 26.0015 19.8331C25.9937 19.984 26.0163 20.135 26.0681 20.277C26.1198 20.419 26.1997 20.5491 26.3029 20.6595C26.406 20.77 26.5304 20.8585 26.6685 20.9198C26.8067 20.9812 26.9558 21.014 27.1069 21.0165C28.0474 21.066 28.6481 21.3495 29.0261 21.7297C29.4064 22.1122 29.6899 22.7265 29.7416 23.6872C29.7444 23.8382 29.7776 23.987 29.8392 24.1249C29.9007 24.2628 29.9894 24.3869 30.0999 24.4898C30.2105 24.5926 30.3406 24.6722 30.4825 24.7237C30.6245 24.7753 30.7753 24.7977 30.9261 24.7897C31.0769 24.7817 31.2245 24.7434 31.3602 24.6771C31.4959 24.6109 31.6168 24.518 31.7158 24.404C31.8148 24.2899 31.8899 24.1572 31.9365 24.0135C31.9831 23.8699 32.0003 23.7184 31.9871 23.568C31.9151 22.218 31.4921 21.0255 30.6259 20.148C29.7551 19.2705 28.5694 18.843 27.2239 18.771Z" fill="#f2eddc"/>
<path fill-rule="evenodd" clip-rule="evenodd" d="M14.9423 2.32263C22.8316 0.559122 31.0129 0.559122 38.9022 2.32263L39.7427 2.50858C42.0489 3.02415 44.167 4.16903 45.8617 5.81602C47.5564 7.463 48.7613 9.54759 49.3425 11.8382C51.345 19.7295 51.345 27.996 49.3425 35.8873C48.7613 38.1779 47.5564 40.2625 45.8617 41.9095C44.167 43.5565 42.0489 44.7013 39.7427 45.2169L38.8997 45.4029C33.9585 46.5078 28.8883 46.9242 23.833 46.64L17.2555 52.5259C17.0075 52.7479 16.7045 52.8993 16.378 52.9642C16.0516 53.0292 15.7137 53.0053 15.3996 52.8952C15.0855 52.785 14.8068 52.5925 14.5924 52.3378C14.3781 52.0832 14.2361 51.7757 14.1811 51.4474L13.0927 44.9467C11.0056 44.2973 9.11994 43.1234 7.6159 41.5373C6.11186 39.9513 5.03973 38.006 4.50198 35.8873C2.49934 27.996 2.49934 19.7295 4.50198 11.8382C5.08318 9.54759 6.28806 7.463 7.98275 5.81602C9.67744 4.16903 11.7956 3.02415 14.1018 2.50858L14.9423 2.32263ZM38.0915 5.94984C30.7361 4.30559 23.1084 4.30559 15.753 5.94984L14.9101 6.13827C13.2755 6.50435 11.7744 7.31632 10.5735 8.48401C9.37251 9.65169 8.51871 11.1294 8.10688 12.753C6.25661 20.0439 6.25661 27.6815 8.10688 34.9725C8.51891 36.5964 9.37308 38.0743 10.5745 39.242C11.7759 40.4098 13.2775 41.2215 14.9125 41.5872L15.1357 41.6368C15.4966 41.7175 15.8253 41.9041 16.0797 42.1726C16.3341 42.4411 16.5026 42.7794 16.5638 43.1442L17.2927 47.5028L21.9339 43.35C22.1192 43.1837 22.3361 43.0563 22.5716 42.9753C22.8071 42.8944 23.0565 42.8616 23.305 42.8789C28.2612 43.2305 33.2423 42.8589 38.0915 41.7757L38.9319 41.5872C40.567 41.2215 42.0686 40.4098 43.27 39.242C44.4714 38.0743 45.3256 36.5964 45.7376 34.9725C47.5872 27.6833 47.5872 20.0446 45.7376 12.753C45.3256 11.1291 44.4714 9.65116 43.27 8.48345C42.0686 7.31573 40.567 6.50394 38.9319 6.13827L38.0915 5.94984Z" fill="#f2eddc"/>
</svg>
