<svg width="120" height="120" viewBox="0 0 120 120" fill="none" xmlns="http://www.w3.org/2000/svg">
<path d="M59.9996 94.9999L79.9996 99.9999V84.5999C73.9679 88.2322 67.0397 90.1029 59.9996 89.9999C52.9594 90.1029 46.0312 88.2322 39.9996 84.5999V99.9999M59.9996 19.9999C56.0594 19.928 52.1462 20.6628 48.5004 22.1589C44.8546 23.655 41.5534 25.881 38.7996 28.6999C35.9501 31.4568 33.6984 34.7704 32.1845 38.4348C30.6706 42.0992 29.9269 46.0358 29.9996 49.9999C29.9475 53.9389 30.7012 57.847 32.2145 61.4841C33.7278 65.1212 35.9687 68.4105 38.7996 71.1499C41.5405 73.996 44.836 76.2498 48.4824 77.772C52.1288 79.2942 56.0486 80.0524 59.9996 79.9999C63.9506 80.0524 67.8703 79.2942 71.5167 77.772C75.1631 76.2498 78.4586 73.996 81.1996 71.1499C84.0304 68.4105 86.2713 65.1212 87.7846 61.4841C89.2979 57.847 90.0517 53.9389 89.9996 49.9999C90.0723 46.0358 89.3285 42.0992 87.8146 38.4348C86.3007 34.7704 84.049 31.4568 81.1996 28.6999C78.4457 25.881 75.1445 23.655 71.4987 22.1589C67.853 20.6628 63.9397 19.928 59.9996 19.9999ZM99.9996 49.9999C99.8931 54.7993 98.9279 59.5409 97.1496 63.9999C95.5475 68.5371 93.1237 72.7405 89.9996 76.3999V115L59.9996 105L29.9996 115V76.3999C23.528 69.1322 19.9671 59.7313 19.9996 49.9999C19.9114 44.7529 20.8997 39.5434 22.9035 34.6932C24.9072 29.843 27.8838 25.4549 31.6496 21.7999C35.3181 18.0004 39.7264 14.9931 44.6024 12.9636C49.4784 10.9341 54.7186 9.92544 59.9996 9.99994C65.2805 9.92544 70.5207 10.9341 75.3967 12.9636C80.2727 14.9931 84.681 18.0004 88.3496 21.7999C92.1153 25.4549 95.0919 29.843 97.0956 34.6932C99.0994 39.5434 100.088 44.7529 99.9996 49.9999Z" fill="#f2eddc"/>
<path d="M53.2166 65C52.1313 65 51.2953 64.7213 50.7086 64.164C50.1513 63.5773 49.8726 62.756 49.8726 61.7C49.8726 60.644 50.1513 59.8373 50.7086 59.28C51.2953 58.7227 52.1313 58.444 53.2166 58.444H57.1766V40.448H60.8726L54.4926 44.364C53.7299 44.8333 53.0113 45.024 52.3366 44.936C51.6619 44.8187 51.0899 44.5253 50.6206 44.056C50.1513 43.5867 49.8433 43.0147 49.6966 42.34C49.5499 41.6653 49.6086 40.9907 49.8726 40.316C50.1366 39.6413 50.6646 39.0693 51.4566 38.6L57.5286 34.816C58.1739 34.4053 58.8339 34.0973 59.5086 33.892C60.2126 33.6867 60.9459 33.584 61.7086 33.584C62.8233 33.584 63.6886 33.8773 64.3046 34.464C64.9206 35.0213 65.2286 35.8427 65.2286 36.928V58.444H68.7486C69.8339 58.444 70.6553 58.7227 71.2126 59.28C71.7993 59.8373 72.0926 60.644 72.0926 61.7C72.0926 62.756 71.7993 63.5773 71.2126 64.164C70.6553 64.7213 69.8339 65 68.7486 65H53.2166Z" fill="#f2eddc"/>
</svg>
