<svg width="150" height="120" viewBox="0 0 150 120" fill="none" xmlns="http://www.w3.org/2000/svg">
<mask id="path-1-inside-1_876_2030" fill="white">
<path d="M72.3049 31.7109C73.969 30.2344 74.6253 27.9141 73.7581 25.8516C73.219 24.6094 72.6331 23.3906 71.9768 22.2188L71.2503 20.9531C70.5471 19.7812 69.7737 18.6328 68.9534 17.5313C67.6174 15.75 65.2737 15.1641 63.1643 15.8672L56.5549 18.0469C54.0471 15.9844 51.1643 14.2969 48.0706 13.1484L46.6409 6.35156C46.1956 4.17188 44.5081 2.4375 42.3049 2.17969C40.7581 1.96875 39.1878 1.875 37.594 1.875H37.4299C35.8362 1.875 34.2659 1.96875 32.719 2.15625C30.5159 2.41406 28.8284 4.17188 28.3831 6.32812L26.9534 13.1484C23.8362 14.3203 20.9768 15.9844 18.469 18.0469L11.8362 15.8906C9.72681 15.1875 7.38306 15.7734 6.04713 17.5547C5.22681 18.6562 4.45338 19.8047 3.72681 20.9766L3.02369 22.2188C2.36744 23.3906 1.7815 24.6094 1.24244 25.875C0.37525 27.9141 1.0315 30.2344 2.69556 31.7344L7.89869 36.375C7.64088 37.9453 7.50025 39.5859 7.50025 41.25C7.50025 42.9141 7.64088 44.5547 7.89869 46.1484L2.69556 50.7891C1.0315 52.2656 0.37525 54.5859 1.24244 56.6484C1.7815 57.8906 2.36744 59.1094 3.02369 60.3047L3.72681 61.5234C4.42994 62.7188 5.20338 63.8438 6.04713 64.9453C7.38306 66.7266 9.72681 67.3125 11.8362 66.6094L18.4456 64.4297C20.9534 66.4922 23.8362 68.1797 26.9299 69.3281L28.3596 76.1484C28.8049 78.3281 30.4924 80.0625 32.6956 80.3203C34.2659 80.5078 35.8596 80.6016 37.4768 80.6016C39.094 80.6016 40.6878 80.5078 42.2581 80.3203C44.4612 80.0625 46.1487 78.3047 46.594 76.1484L48.0237 69.3281C51.1409 68.1562 54.0003 66.4922 56.5081 64.4297L63.1174 66.6094C65.2268 67.3125 67.5706 66.7266 68.9065 64.9453C69.7268 63.8438 70.5003 62.7188 71.2034 61.5234L71.9299 60.2578C72.5862 59.0859 73.1721 57.8672 73.7112 56.625C74.5784 54.5859 73.9221 52.2656 72.2581 50.7656L67.0549 46.125C67.3128 44.5312 67.4534 42.8906 67.4534 41.2266C67.4534 39.5625 67.3128 37.9219 67.0549 36.3281L72.2581 31.6875L72.3049 31.7109ZM26.2503 41.25C26.2503 38.2663 27.4355 35.4048 29.5453 33.295C31.6551 31.1853 34.5166 30 37.5003 30C40.4839 30 43.3454 31.1853 45.4552 33.295C47.565 35.4048 48.7503 38.2663 48.7503 41.25C48.7503 44.2337 47.565 47.0952 45.4552 49.205C43.3454 51.3147 40.4839 52.5 37.5003 52.5C34.5166 52.5 31.6551 51.3147 29.5453 49.205C27.4355 47.0952 26.2503 44.2337 26.2503 41.25ZM118.289 117.305C119.766 118.969 122.086 119.625 124.149 118.758C125.391 118.219 126.61 117.633 127.782 116.977L129.047 116.25C130.219 115.547 131.367 114.773 132.469 113.953C134.25 112.617 134.836 110.273 134.133 108.164L131.953 101.555C134.016 99.0469 135.703 96.1641 136.852 93.0703L143.672 91.6406C145.852 91.1953 147.586 89.5078 147.844 87.3047C148.032 85.7344 148.125 84.1406 148.125 82.5234C148.125 80.9062 148.032 79.3125 147.844 77.7422C147.586 75.5391 145.828 73.8516 143.672 73.4062L136.852 71.9531C135.68 68.8359 134.016 65.9766 131.953 63.4687L134.133 56.8594C134.836 54.75 134.25 52.4062 132.469 51.0703C131.367 50.25 130.219 49.4766 129.047 48.75L127.805 48.0469C126.633 47.3906 125.414 46.8047 124.149 46.2656C122.11 45.3984 119.789 46.0547 118.289 47.7188L113.649 52.9219C112.055 52.6641 110.414 52.5234 108.75 52.5234C107.086 52.5234 105.446 52.6641 103.852 52.9219L99.2112 47.7188C97.7346 46.0547 95.4143 45.3984 93.3518 46.2656C92.1096 46.8047 90.8909 47.3906 89.6956 48.0469L88.4768 48.75C87.2815 49.4531 86.1565 50.2266 85.0549 51.0703C83.2737 52.4062 82.6878 54.75 83.3909 56.8594L85.5706 63.4687C83.5081 65.9766 81.8206 68.8594 80.6721 71.9531L73.8518 73.3594C71.6721 73.8047 69.9378 75.4922 69.6799 77.6953C69.4924 79.2656 69.3987 80.8594 69.3987 82.4766C69.3987 84.0938 69.4924 85.6875 69.6799 87.2578C69.9378 89.4609 71.6956 91.1484 73.8518 91.5938L80.6721 93.0234C81.844 96.1406 83.5081 99 85.5706 101.508L83.3909 108.117C82.6878 110.227 83.2737 112.57 85.0549 113.906C86.1565 114.727 87.2815 115.5 88.4768 116.203L89.7424 116.93C90.9143 117.586 92.1331 118.172 93.3753 118.711C95.4143 119.578 97.7346 118.922 99.2346 117.258L103.875 112.055C105.469 112.312 107.11 112.453 108.774 112.453C110.438 112.453 112.078 112.312 113.672 112.055L118.313 117.258L118.289 117.305ZM108.75 71.25C110.228 71.25 111.691 71.541 113.055 72.1064C114.42 72.6717 115.661 73.5004 116.705 74.545C117.75 75.5897 118.579 76.8299 119.144 78.1948C119.709 79.5597 120 81.0226 120 82.5C120 83.9774 119.709 85.4403 119.144 86.8052C118.579 88.1701 117.75 89.4103 116.705 90.455C115.661 91.4996 114.42 92.3283 113.055 92.8936C111.691 93.459 110.228 93.75 108.75 93.75C107.273 93.75 105.81 93.459 104.445 92.8936C103.08 92.3283 101.84 91.4996 100.795 90.455C99.7506 89.4103 98.922 88.1701 98.3566 86.8052C97.7912 85.4403 97.5003 83.9774 97.5003 82.5C97.5003 81.0226 97.7912 79.5597 98.3566 78.1948C98.922 76.8299 99.7506 75.5897 100.795 74.545C101.84 73.5004 103.08 72.6717 104.445 72.1064C105.81 71.541 107.273 71.25 108.75 71.25Z"/>
</mask>
<path d="M72.3049 31.7109C73.969 30.2344 74.6253 27.9141 73.7581 25.8516C73.219 24.6094 72.6331 23.3906 71.9768 22.2188L71.2503 20.9531C70.5471 19.7812 69.7737 18.6328 68.9534 17.5313C67.6174 15.75 65.2737 15.1641 63.1643 15.8672L56.5549 18.0469C54.0471 15.9844 51.1643 14.2969 48.0706 13.1484L46.6409 6.35156C46.1956 4.17188 44.5081 2.4375 42.3049 2.17969C40.7581 1.96875 39.1878 1.875 37.594 1.875H37.4299C35.8362 1.875 34.2659 1.96875 32.719 2.15625C30.5159 2.41406 28.8284 4.17188 28.3831 6.32812L26.9534 13.1484C23.8362 14.3203 20.9768 15.9844 18.469 18.0469L11.8362 15.8906C9.72681 15.1875 7.38306 15.7734 6.04713 17.5547C5.22681 18.6562 4.45338 19.8047 3.72681 20.9766L3.02369 22.2188C2.36744 23.3906 1.7815 24.6094 1.24244 25.875C0.37525 27.9141 1.0315 30.2344 2.69556 31.7344L7.89869 36.375C7.64088 37.9453 7.50025 39.5859 7.50025 41.25C7.50025 42.9141 7.64088 44.5547 7.89869 46.1484L2.69556 50.7891C1.0315 52.2656 0.37525 54.5859 1.24244 56.6484C1.7815 57.8906 2.36744 59.1094 3.02369 60.3047L3.72681 61.5234C4.42994 62.7188 5.20338 63.8438 6.04713 64.9453C7.38306 66.7266 9.72681 67.3125 11.8362 66.6094L18.4456 64.4297C20.9534 66.4922 23.8362 68.1797 26.9299 69.3281L28.3596 76.1484C28.8049 78.3281 30.4924 80.0625 32.6956 80.3203C34.2659 80.5078 35.8596 80.6016 37.4768 80.6016C39.094 80.6016 40.6878 80.5078 42.2581 80.3203C44.4612 80.0625 46.1487 78.3047 46.594 76.1484L48.0237 69.3281C51.1409 68.1562 54.0003 66.4922 56.5081 64.4297L63.1174 66.6094C65.2268 67.3125 67.5706 66.7266 68.9065 64.9453C69.7268 63.8438 70.5003 62.7188 71.2034 61.5234L71.9299 60.2578C72.5862 59.0859 73.1721 57.8672 73.7112 56.625C74.5784 54.5859 73.9221 52.2656 72.2581 50.7656L67.0549 46.125C67.3128 44.5312 67.4534 42.8906 67.4534 41.2266C67.4534 39.5625 67.3128 37.9219 67.0549 36.3281L72.2581 31.6875L72.3049 31.7109ZM26.2503 41.25C26.2503 38.2663 27.4355 35.4048 29.5453 33.295C31.6551 31.1853 34.5166 30 37.5003 30C40.4839 30 43.3454 31.1853 45.4552 33.295C47.565 35.4048 48.7503 38.2663 48.7503 41.25C48.7503 44.2337 47.565 47.0952 45.4552 49.205C43.3454 51.3147 40.4839 52.5 37.5003 52.5C34.5166 52.5 31.6551 51.3147 29.5453 49.205C27.4355 47.0952 26.2503 44.2337 26.2503 41.25ZM118.289 117.305C119.766 118.969 122.086 119.625 124.149 118.758C125.391 118.219 126.61 117.633 127.782 116.977L129.047 116.25C130.219 115.547 131.367 114.773 132.469 113.953C134.25 112.617 134.836 110.273 134.133 108.164L131.953 101.555C134.016 99.0469 135.703 96.1641 136.852 93.0703L143.672 91.6406C145.852 91.1953 147.586 89.5078 147.844 87.3047C148.032 85.7344 148.125 84.1406 148.125 82.5234C148.125 80.9062 148.032 79.3125 147.844 77.7422C147.586 75.5391 145.828 73.8516 143.672 73.4062L136.852 71.9531C135.68 68.8359 134.016 65.9766 131.953 63.4687L134.133 56.8594C134.836 54.75 134.25 52.4062 132.469 51.0703C131.367 50.25 130.219 49.4766 129.047 48.75L127.805 48.0469C126.633 47.3906 125.414 46.8047 124.149 46.2656C122.11 45.3984 119.789 46.0547 118.289 47.7188L113.649 52.9219C112.055 52.6641 110.414 52.5234 108.75 52.5234C107.086 52.5234 105.446 52.6641 103.852 52.9219L99.2112 47.7188C97.7346 46.0547 95.4143 45.3984 93.3518 46.2656C92.1096 46.8047 90.8909 47.3906 89.6956 48.0469L88.4768 48.75C87.2815 49.4531 86.1565 50.2266 85.0549 51.0703C83.2737 52.4062 82.6878 54.75 83.3909 56.8594L85.5706 63.4687C83.5081 65.9766 81.8206 68.8594 80.6721 71.9531L73.8518 73.3594C71.6721 73.8047 69.9378 75.4922 69.6799 77.6953C69.4924 79.2656 69.3987 80.8594 69.3987 82.4766C69.3987 84.0938 69.4924 85.6875 69.6799 87.2578C69.9378 89.4609 71.6956 91.1484 73.8518 91.5938L80.6721 93.0234C81.844 96.1406 83.5081 99 85.5706 101.508L83.3909 108.117C82.6878 110.227 83.2737 112.57 85.0549 113.906C86.1565 114.727 87.2815 115.5 88.4768 116.203L89.7424 116.93C90.9143 117.586 92.1331 118.172 93.3753 118.711C95.4143 119.578 97.7346 118.922 99.2346 117.258L103.875 112.055C105.469 112.312 107.11 112.453 108.774 112.453C110.438 112.453 112.078 112.312 113.672 112.055L118.313 117.258L118.289 117.305ZM108.75 71.25C110.228 71.25 111.691 71.541 113.055 72.1064C114.42 72.6717 115.661 73.5004 116.705 74.545C117.75 75.5897 118.579 76.8299 119.144 78.1948C119.709 79.5597 120 81.0226 120 82.5C120 83.9774 119.709 85.4403 119.144 86.8052C118.579 88.1701 117.75 89.4103 116.705 90.455C115.661 91.4996 114.42 92.3283 113.055 92.8936C111.691 93.459 110.228 93.75 108.75 93.75C107.273 93.75 105.81 93.459 104.445 92.8936C103.08 92.3283 101.84 91.4996 100.795 90.455C99.7506 89.4103 98.922 88.1701 98.3566 86.8052C97.7912 85.4403 97.5003 83.9774 97.5003 82.5C97.5003 81.0226 97.7912 79.5597 98.3566 78.1948C98.922 76.8299 99.7506 75.5897 100.795 74.545C101.84 73.5004 103.08 72.6717 104.445 72.1064C105.81 71.541 107.273 71.25 108.75 71.25Z" stroke="#f2eddc" stroke-width="16" mask="url(#path-1-inside-1_876_2030)"/>
</svg>
