<svg width="120" height="120" viewBox="0 0 120 120" fill="none" xmlns="http://www.w3.org/2000/svg">
<path d="M44 54.7499L54.75 43.8749L47.75 36.7499L45.75 38.7499C44.8333 39.6666 43.6883 40.1466 42.315 40.1899C40.9417 40.2332 39.7533 39.7533 38.75 38.7499C37.75 37.7499 37.25 36.5632 37.25 35.1899C37.25 33.8166 37.75 32.6283 38.75 31.6249L40.625 29.7499L35 24.1249L24.125 34.9999L44 54.7499ZM85 95.8749L95.875 84.9999L90.25 79.3749L88.25 81.2499C87.25 82.2499 86.0833 82.7499 84.75 82.7499C83.4167 82.7499 82.25 82.2499 81.25 81.2499C80.25 80.2499 79.75 79.0833 79.75 77.7499C79.75 76.4166 80.25 75.2499 81.25 74.2499L83.125 72.2499L76 65.2499L65.25 75.9999L85 95.8749ZM20 105C18.5833 105 17.3967 104.52 16.44 103.56C15.4833 102.6 15.0033 101.413 15 99.9999V85.8749C15 85.2083 15.125 84.5633 15.375 83.9399C15.625 83.3166 16 82.7533 16.5 82.2499L36.875 61.8749L15.25 40.2499C13.8333 38.8333 13.125 37.0833 13.125 34.9999C13.125 32.9166 13.8333 31.1666 15.25 29.7499L29.75 15.2499C31.1667 13.8333 32.9167 13.1466 35 13.1899C37.0833 13.2333 38.8333 13.9616 40.25 15.3749L62 36.9999L80.875 17.9999C81.875 16.9999 83 16.2499 84.25 15.7499C85.5 15.2499 86.7917 14.9999 88.125 14.9999C89.4583 14.9999 90.75 15.2499 92 15.7499C93.25 16.2499 94.375 16.9999 95.375 17.9999L102 24.7499C103 25.7499 103.75 26.8749 104.25 28.1249C104.75 29.3749 105 30.6666 105 31.9999C105 33.3333 104.75 34.6049 104.25 35.8149C103.75 37.0249 103 38.1283 102 39.1249L83.125 58.1249L104.75 79.7499C106.167 81.1666 106.875 82.9166 106.875 84.9999C106.875 87.0833 106.167 88.8333 104.75 90.2499L90.25 104.75C88.8333 106.167 87.0833 106.875 85 106.875C82.9167 106.875 81.1667 106.167 79.75 104.75L58.125 83.1249L37.75 103.5C37.25 104 36.6883 104.375 36.065 104.625C35.4417 104.875 34.795 105 34.125 105H20ZM25 94.9999H32L81 46.1249L73.875 38.9999L25 87.9999V94.9999ZM77.5 42.6249L73.875 38.9999L81 46.1249L77.5 42.6249Z" fill="#f2eddc"/>
</svg>
