<svg width="120" height="120" viewBox="0 0 120 120" fill="none" xmlns="http://www.w3.org/2000/svg">
<path d="M30 90H70M15 110H105M70 110C79.2826 110 88.185 106.313 94.7487 99.7487C101.313 93.185 105 84.2826 105 75C105 65.7174 101.313 56.815 94.7487 50.2513C88.185 43.6875 79.2826 40 70 40H65M45 70H55M60 30V15C60 13.6739 59.4732 12.4021 58.5355 11.4645C57.5979 10.5268 56.3261 10 55 10H45C43.6739 10 42.4021 10.5268 41.4645 11.4645C40.5268 12.4021 40 13.6739 40 15V30M45 60C42.3478 60 39.8043 58.9464 37.9289 57.0711C36.0536 55.1957 35 52.6522 35 50V30H65V50C65 52.6522 63.9464 55.1957 62.0711 57.0711C60.1957 58.9464 57.6522 60 55 60H45Z" stroke="#f2eddc" stroke-width="10" stroke-linecap="round" stroke-linejoin="round"/>
</svg>
