<svg width="120" height="120" viewBox="0 0 120 120" fill="none" xmlns="http://www.w3.org/2000/svg">
<path fill-rule="evenodd" clip-rule="evenodd" d="M112.35 18.75C112.449 17.5024 112.499 16.2515 112.5 15V7.5H99.375C89.638 7.50203 80.164 10.6607 72.3739 16.5022C64.5838 22.3438 58.8974 30.5535 56.1675 39.9C51.9647 34.4787 46.5763 30.0918 40.4153 27.0757C34.2544 24.0596 27.4846 22.4943 20.625 22.5H7.5V30C7.5 41.9347 12.2411 53.3807 20.6802 61.8198C29.1193 70.2589 40.5653 75 52.5 75H54.375V106.875C54.375 108.367 54.9676 109.798 56.0225 110.852C57.0774 111.907 58.5082 112.5 60 112.5C61.4918 112.5 62.9226 111.907 63.9775 110.852C65.0324 109.798 65.625 108.367 65.625 106.875V60H67.5C78.7867 60.0016 89.6619 55.7618 97.9693 48.1213C106.277 40.4808 111.409 29.9974 112.35 18.75ZM65.8275 48.75C66.75 40.4986 70.6818 32.8767 76.8709 27.3421C83.0601 21.8074 91.0721 18.7484 99.375 18.75H101.048C100.125 27.0014 96.1932 34.6233 90.0041 40.1579C83.8149 45.6926 75.8029 48.7516 67.5 48.75H65.8275ZM20.625 33.75C28.9279 33.7484 36.94 36.8074 43.1291 42.3421C49.3182 47.8767 53.25 55.4986 54.1725 63.75H52.5C44.1971 63.7516 36.185 60.6926 29.9959 55.1579C23.8068 49.6233 19.875 42.0014 18.9525 33.75H20.625Z" fill="#f2eddc"/>
</svg>
