<svg width="120" height="120" viewBox="0 0 120 120" fill="none" xmlns="http://www.w3.org/2000/svg">
<path d="M56.5795 4.92188L53.0123 13.0664C51.1658 13.1791 49.3286 13.4116 47.5123 13.7625L42.0555 6.71625L36.1741 8.71594L36.1448 17.6808C33.6534 18.9614 31.2659 20.5097 29.0105 22.3167L20.6984 18.5742L16.4428 23.1007L20.6981 31.1719C19.3405 33.1073 18.1474 35.153 17.1314 37.2877L8.00531 37.5366L6.15234 43.4616L13.5206 48.8892C13.1679 51.0877 12.9956 53.3091 12.9858 55.5323L4.80469 59.6777L5.66156 65.8301L14.6412 67.5879C15.178 69.4674 15.8436 71.3077 16.6334 73.0957L10.7156 80.4422L14.0187 85.7006L23.2179 83.5474C23.8 84.2324 24.4033 84.8991 25.0268 85.5466C26.3291 86.8937 27.7163 88.1561 29.1799 89.3259L27.3928 98.5399L32.7689 101.645L39.7927 95.5296C41.8024 96.3374 43.8716 96.9888 45.9818 97.4777L48.2744 106.479L54.4631 106.985L58.1838 98.4956C60.7549 98.3409 63.3176 97.9566 65.8376 97.3383L71.7485 104.187L77.5125 101.88L77.3437 98.4077L63.8892 88.2054C59.9723 89.1956 55.9106 89.4607 51.9213 89.0107C44.479 88.1716 37.3268 84.8107 31.714 79.0062C18.8848 65.7373 19.2516 44.6304 32.5198 31.8016C38.9463 25.5877 47.2127 22.4353 55.4885 22.346C64.2987 22.2509 73.1168 25.6263 79.7318 32.468C90.4978 43.6036 91.9652 60.3551 84.3166 73.0371L91.8096 78.7207C92.7412 77.2598 93.5826 75.7433 94.3291 74.1797L103.389 73.9305L105.242 68.0056L97.9254 62.6149C98.2783 60.3984 98.4569 58.1576 98.4598 55.9132L106.59 51.7823L105.733 45.63L96.7612 43.8722C96.0063 41.2733 95.0057 38.7521 93.773 36.3429L99.119 28.938L95.5448 23.8622L86.7417 26.4183C86.6311 26.3011 86.5238 26.1823 86.4117 26.0667C85.0261 24.633 83.5431 23.2967 81.9734 22.0673L83.658 13.3662L78.2812 10.2609L71.6016 16.0767C69.4392 15.2065 67.2183 14.5291 64.9657 14.0259L62.7759 5.42719L56.5795 4.92188ZM42.9492 40.8984C40.5248 40.9261 38.1218 41.5214 35.918 42.6047L46.5164 50.647C49.7217 53.0789 50.6309 57.7005 48.1711 60.9448C45.7106 64.1909 40.9861 64.6788 37.7344 62.2123L27.1434 54.1774C26.059 59.9883 28.1126 66.1453 33.142 69.9612C37.6526 73.3823 43.4414 74.0229 48.428 72.2318L49.5483 71.8287L50.4928 72.5466L82.178 96.585L83.1225 97.3027L83.0419 98.4893C82.6582 103.774 84.8208 109.179 89.3334 112.603C94.3631 116.418 100.852 116.735 106.157 114.126L95.5664 106.092C92.3147 103.625 91.5159 98.9419 93.9773 95.6986C96.4383 92.4548 101.134 92.088 104.341 94.5192L114.932 102.554C116.014 96.7455 113.968 90.5855 108.94 86.7705C104.414 83.3351 98.6707 82.6544 93.7134 84.4191L92.6002 84.8147L91.6556 84.0968L59.9705 60.0588L59.0259 59.3409L59.1066 58.162C59.4698 52.9151 57.2667 47.5697 52.7416 44.1359C49.8016 41.9055 46.3615 40.8598 42.9495 40.8987L42.9492 40.8984ZM53.1593 62.0508L91.5675 91.1939L88.9233 94.6875L50.5078 65.5371L53.1593 62.0508Z" fill="#593A28"/>
</svg>
