<svg width="120" height="120" viewBox="0 0 120 120" fill="none" xmlns="http://www.w3.org/2000/svg">
<path d="M52.5 40.0002C52.5 22.5502 36 11.3002 35.3 10.8502C34.4732 10.2913 33.498 9.99268 32.5 9.99268C31.502 9.99268 30.5268 10.2913 29.7 10.8502C29 11.3502 12.5 22.7502 12.5 40.0002C12.5 45.3045 14.6071 50.3916 18.3579 54.1423C22.1086 57.8931 27.1957 60.0002 32.5 60.0002C37.8043 60.0002 42.8914 57.8931 46.6421 54.1423C50.3929 50.3916 52.5 45.3045 52.5 40.0002ZM32.5 50.0002C29.8478 50.0002 27.3043 48.9466 25.4289 47.0713C23.5536 45.1959 22.5 42.6524 22.5 40.0002C22.8427 36.3898 23.9039 32.8844 25.6212 29.6901C27.3386 26.4959 29.6773 23.6773 32.5 21.4002C35.3332 23.6676 37.6793 26.4838 39.3977 29.6799C41.1161 32.8761 42.1713 36.3863 42.5 40.0002C42.5 42.6524 41.4464 45.1959 39.5711 47.0713C37.6957 48.9466 35.1522 50.0002 32.5 50.0002ZM90.3 10.8502C89.4732 10.2913 88.498 9.99268 87.5 9.99268C86.502 9.99268 85.5268 10.2913 84.7 10.8502C84 11.3502 67.5 22.7502 67.5 40.0002C67.5 45.3045 69.6071 50.3916 73.3579 54.1423C77.1086 57.8931 82.1957 60.0002 87.5 60.0002C92.8043 60.0002 97.8914 57.8931 101.642 54.1423C105.393 50.3916 107.5 45.3045 107.5 40.0002C107.5 22.5502 91 11.3002 90.3 10.8502ZM87.5 50.0002C84.8478 50.0002 82.3043 48.9466 80.4289 47.0713C78.5536 45.1959 77.5 42.6524 77.5 40.0002C77.8427 36.3898 78.9039 32.8844 80.6212 29.6901C82.3386 26.4959 84.6773 23.6773 87.5 21.4002C90.3332 23.6676 92.6794 26.4838 94.3977 29.6799C96.1161 32.8761 97.1713 36.3863 97.5 40.0002C97.5 42.6524 96.4464 45.1959 94.5711 47.0713C92.6957 48.9466 90.1522 50.0002 87.5 50.0002ZM65.3 60.8502C64.4732 60.2913 63.498 59.9927 62.5 59.9927C61.502 59.9927 60.5268 60.2913 59.7 60.8502C59 61.3502 42.5 72.7502 42.5 90.0002C42.5 95.3045 44.6071 100.392 48.3579 104.142C52.1086 107.893 57.1957 110 62.5 110C67.8043 110 72.8914 107.893 76.6421 104.142C80.3929 100.392 82.5 95.3045 82.5 90.0002C82.5 72.5502 66 61.3002 65.3 60.8502ZM62.5 100C59.8478 100 57.3043 98.9466 55.4289 97.0713C53.5536 95.1959 52.5 92.6524 52.5 90.0002C52.8427 86.3898 53.9039 82.8844 55.6212 79.6901C57.3386 76.4959 59.6773 73.6773 62.5 71.4002C65.3332 73.6676 67.6793 76.4838 69.3977 79.6799C71.1161 82.8761 72.1713 86.3863 72.5 90.0002C72.5 92.6524 71.4464 95.1959 69.5711 97.0713C67.6957 98.9466 65.1522 100 62.5 100Z" fill="#593A28"/>
</svg>
