<svg width="44" height="44" viewBox="0 0 44 44" fill="none" xmlns="http://www.w3.org/2000/svg">
<path d="M9.15879 39.1109C8.38312 39.1109 7.67999 38.8823 7.04939 38.4251C6.42023 37.9665 6.00367 37.3508 5.79969 36.5782L1.04869 19.6332C0.896426 19.0848 0.99195 18.577 1.33526 18.1097C1.68 17.6423 2.14253 17.4087 2.72285 17.4087H12.8346L20.5741 5.65693C20.7537 5.39506 20.9641 5.20118 21.2054 5.07531C21.4453 4.95088 21.7168 4.88867 22.0199 4.88867C22.3244 4.88867 22.5974 4.95812 22.8387 5.09701C23.0786 5.23591 23.2883 5.43629 23.4678 5.69816L31.1233 17.4087H41.2588C41.8391 17.4087 42.3081 17.6423 42.6658 18.1097C43.0234 18.577 43.1125 19.0848 42.9329 19.6332L38.1022 36.5782C37.8982 37.3508 37.4817 37.9657 36.8525 38.4229C36.2205 38.8816 35.5166 39.1109 34.741 39.1109H9.15879ZM8.98211 36.9407H35.0017C35.3062 36.9407 35.5691 36.8502 35.7903 36.6694C36.0115 36.4885 36.163 36.2448 36.2449 35.938L40.7374 19.5789H3.24643L7.73888 35.938C7.82076 36.2448 7.9723 36.4885 8.19351 36.6694C8.41472 36.8502 8.67759 36.9407 8.98211 36.9407ZM15.4482 17.4087H28.5226L21.979 7.37575L15.4482 17.4087Z" fill="#402E21"/>
</svg>
