<svg width="30" height="26" viewBox="0 0 30 26" fill="none" xmlns="http://www.w3.org/2000/svg">
<path d="M27.1861 24.1431H2.8141C1.25805 24.1431 0.00195312 22.8988 0.00195312 21.3574V4.64314C0.00195312 3.10171 1.25805 1.85742 2.8141 1.85742H27.1861C28.7421 1.85742 29.9982 3.10171 29.9982 4.64314V21.3574C29.9982 22.8988 28.7421 24.1431 27.1861 24.1431ZM2.8141 3.71456C2.28917 3.71456 1.87672 4.12314 1.87672 4.64314V21.3574C1.87672 21.8774 2.28917 22.286 2.8141 22.286H27.1861C27.711 22.286 28.1234 21.8774 28.1234 21.3574V4.64314C28.1234 4.12314 27.711 3.71456 27.1861 3.71456H2.8141Z" fill="#f2eddc"/>
<path d="M15.0007 16.6403C13.6883 16.6403 12.4885 16.1203 11.5886 15.1731L1.74608 4.81029C1.38987 4.43886 1.40862 3.84458 1.78357 3.49172C2.15853 3.13886 2.75845 3.15743 3.11466 3.52886L12.9572 13.8917C14.0258 15.0246 15.9755 15.0246 17.0442 13.8917L26.8867 3.54743C27.2429 3.176 27.8428 3.15743 28.2178 3.51029C28.5927 3.86315 28.6115 4.45743 28.2553 4.82886L18.4127 15.1917C17.5129 16.1389 16.313 16.6589 15.0007 16.6589V16.6403Z" fill="#f2eddc"/>
</svg>
