<svg width="30" height="30" viewBox="0 0 30 30" fill="none" xmlns="http://www.w3.org/2000/svg">
<path fill-rule="evenodd" clip-rule="evenodd" d="M14.9987 12.727C15.9794 12.727 16.92 12.3438 17.6135 11.6619C18.3069 10.9799 18.6965 10.055 18.6965 9.09054C18.6965 8.12609 18.3069 7.20115 17.6135 6.51919C16.92 5.83722 15.9794 5.4541 14.9987 5.4541C14.0179 5.4541 13.0774 5.83722 12.3839 6.51919C11.6904 7.20115 11.3008 8.12609 11.3008 9.09054C11.3008 10.055 11.6904 10.9799 12.3839 11.6619C13.0774 12.3438 14.0179 12.727 14.9987 12.727ZM14.9987 7.27232C15.489 7.27232 15.9593 7.46388 16.3061 7.80486C16.6528 8.14584 16.8476 8.60831 16.8476 9.09054C16.8476 9.57276 16.6528 10.0352 16.3061 10.3762C15.9593 10.7172 15.489 10.9088 14.9987 10.9088C14.5083 10.9088 14.038 10.7172 13.6913 10.3762C13.3445 10.0352 13.1497 9.57276 13.1497 9.09054C13.1497 8.60831 13.3445 8.14584 13.6913 7.80486C14.038 7.46388 14.5083 7.27232 14.9987 7.27232Z" fill="#593A28"/>
<path fill-rule="evenodd" clip-rule="evenodd" d="M6.67773 8.70199C6.67773 13.5621 11.583 21.8186 14.998 21.8186C18.4148 21.8186 23.3182 13.5621 23.3182 8.70199C23.3182 3.90917 19.6074 0 14.998 0C10.3886 0 6.67773 3.90917 6.67773 8.70199ZM21.4693 8.70199C21.4693 12.6893 17.1279 20.0004 14.998 20.0004C12.8698 20.0004 8.52667 12.6912 8.52667 8.70199C8.52667 4.88555 11.4388 1.81822 14.998 1.81822C18.5572 1.81822 21.4693 4.88555 21.4693 8.70199Z" fill="#593A28"/>
<path d="M21.3493 13.8906C21.1282 13.797 20.9529 13.6224 20.8607 13.4038C20.7685 13.1852 20.7666 12.9398 20.8555 12.7199C20.9443 12.4999 21.1169 12.3227 21.3365 12.2259C21.5561 12.1291 21.8054 12.1203 22.0315 12.2014C22.7834 12.4947 23.4609 12.9461 24.0167 13.524C24.5724 14.1019 24.9929 14.7924 25.2487 15.547L27.7152 22.8198C27.9933 23.6401 28.0692 24.5136 27.9365 25.3684C27.8038 26.2232 27.4664 27.0347 26.9521 27.736C26.4377 28.4373 25.7612 29.0083 24.9784 29.402C24.1955 29.7956 23.3287 30.0006 22.4494 30H7.54692C6.66796 30 5.80157 29.7946 5.01917 29.4007C4.23677 29.0068 3.56076 28.4357 3.04686 27.7345C2.53295 27.0333 2.19586 26.222 2.06337 25.3675C1.93089 24.513 2.00679 23.6398 2.28484 22.8198L4.74948 15.547C5.00972 14.7788 5.44058 14.0773 6.01079 13.4933C6.581 12.9093 7.27627 12.4575 8.04614 12.1705C8.15965 12.1282 8.28054 12.1082 8.4019 12.1117C8.52327 12.1153 8.64273 12.1423 8.75347 12.1913C8.86421 12.2403 8.96406 12.3102 9.04731 12.3971C9.13057 12.484 9.19561 12.5862 9.2387 12.6978C9.2818 12.8094 9.30212 12.9283 9.2985 13.0477C9.29488 13.167 9.26739 13.2845 9.2176 13.3934C9.1678 13.5023 9.09669 13.6005 9.00831 13.6824C8.91993 13.7642 8.81602 13.8282 8.70251 13.8706C8.18861 14.0617 7.7245 14.3631 7.3439 14.7528C6.9633 15.1425 6.67579 15.6107 6.50227 16.1233L4.03764 23.3962C3.85248 23.9429 3.80208 24.525 3.89058 25.0946C3.97908 25.6642 4.20396 26.2049 4.54668 26.6723C4.88939 27.1396 5.34014 27.5202 5.86177 27.7827C6.3834 28.0451 6.96099 28.1819 7.54692 28.1818H22.4531C23.0391 28.1817 23.6167 28.0447 24.1382 27.782C24.6598 27.5194 25.1105 27.1386 25.453 26.671C25.7956 26.2035 26.0202 25.6626 26.1085 25.0929C26.1967 24.5232 26.146 23.941 25.9605 23.3944L23.4977 16.1215C23.3271 15.6187 23.0467 15.1586 22.6762 14.7736C22.3057 14.3885 21.8541 14.0878 21.353 13.8924" fill="#593A28"/>
</svg>
