<svg width="30" height="30" viewBox="0 0 30 30" fill="none" xmlns="http://www.w3.org/2000/svg">
<g clip-path="url(#clip0_946_236)">
<path d="M4.9119 3.06737C4.44729 2.99834 3.97353 3.0938 3.56946 3.33787H3.53446C2.597 3.89929 1.75204 4.60616 1.03208 5.43807C0.432104 6.14495 0.107118 6.85948 0.0221216 7.54849C-0.0278761 7.95679 0.00712325 8.37019 0.124618 8.76063L0.169615 8.78615C0.844584 10.8098 1.72454 12.7569 2.7995 14.5891C4.18556 17.1627 5.89124 19.5429 7.87426 21.6706L7.93426 21.7574L8.02926 21.8289L8.08675 21.8978L8.15675 21.959C10.2485 23.9894 12.5856 25.7388 15.1114 27.1649C17.9988 28.77 19.7512 29.5279 20.8037 29.8443V29.8596C21.1112 29.9566 21.3911 30 21.6736 30C22.57 29.9324 23.4183 29.5605 24.0835 28.9435C24.896 28.2086 25.5835 27.3435 26.1184 26.3814V26.3636C26.6209 25.3938 26.4509 24.4803 25.726 23.8602C24.2698 22.5613 22.6952 21.4077 21.0237 20.4151C19.9037 19.795 18.7663 20.1701 18.3063 20.7979L17.3238 22.0636C16.8189 22.6914 15.9039 22.6046 15.9039 22.6046L15.8789 22.6199C9.05171 20.8413 7.22929 13.7853 7.22929 13.7853C7.22929 13.7853 7.1443 12.8258 7.77677 12.3358L9.00671 11.3253C9.59669 10.8353 10.0067 9.67676 9.3742 8.53351C8.40825 6.82569 7.2804 5.21881 6.00685 3.73597C5.72908 3.38698 5.33954 3.1493 4.9069 3.06482L4.9119 3.06737ZM16.4489 0C16.1174 0 15.7994 0.13443 15.565 0.373716C15.3306 0.613002 15.1989 0.937543 15.1989 1.27594C15.1989 1.61435 15.3306 1.93889 15.565 2.17817C15.7994 2.41746 16.1174 2.55189 16.4489 2.55189C19.6087 2.55189 22.2336 3.60582 24.311 5.62691C25.3785 6.73188 26.2109 8.041 26.7559 9.47516C27.3034 10.9119 27.5534 12.4456 27.4884 13.9818C27.4745 14.3202 27.5928 14.6504 27.8174 14.8997C28.0419 15.1491 28.3543 15.2971 28.6858 15.3113C29.0173 15.3255 29.3408 15.2047 29.585 14.9755C29.8293 14.7463 29.9743 14.4274 29.9883 14.089C30.0658 12.1993 29.7585 10.3137 29.0858 8.55138C28.4102 6.78071 27.3858 5.17043 26.0759 3.82018L26.0509 3.79466C23.4736 1.28105 20.2137 0 16.4489 0Z" fill="#f2eddc"/>
<path d="M16.4062 4.25548C16.0747 4.25548 15.7568 4.38991 15.5223 4.6292C15.2879 4.86848 15.1562 5.19302 15.1562 5.53143C15.1562 5.86983 15.2879 6.19437 15.5223 6.43365C15.7568 6.67294 16.0747 6.80737 16.4062 6.80737H16.4487C18.7286 6.97324 20.3885 7.74902 21.551 9.02241C22.7434 10.3341 23.3609 11.9647 23.3134 13.9807C23.3058 14.3191 23.4301 14.6468 23.6592 14.8916C23.8882 15.1363 24.2031 15.2782 24.5346 15.286C24.8661 15.2938 25.187 15.1668 25.4268 14.9331C25.6666 14.6993 25.8056 14.3778 25.8133 14.0394C25.8733 11.3931 25.0383 9.10917 23.3834 7.28712V7.28202C21.691 5.42935 19.3686 4.44942 16.5737 4.25803L16.5312 4.25293L16.4062 4.25548Z" fill="#f2eddc"/>
<path d="M16.3579 8.53033C16.1906 8.51526 16.022 8.53476 15.8623 8.58765C15.7026 8.64054 15.5549 8.72575 15.4282 8.83818C15.3014 8.95062 15.1981 9.08797 15.1245 9.24204C15.0509 9.39612 15.0085 9.56375 14.9997 9.73494C14.991 9.90613 15.0161 10.0774 15.0737 10.2384C15.1312 10.3995 15.2199 10.547 15.3345 10.6723C15.4492 10.7976 15.5874 10.898 15.7408 10.9675C15.8943 11.0371 16.06 11.0744 16.2279 11.0771C17.2728 11.1333 17.9403 11.4548 18.3603 11.8861C18.7827 12.3199 19.0977 13.0165 19.1552 14.1062C19.1583 14.2774 19.1952 14.4463 19.2636 14.6027C19.332 14.759 19.4305 14.8998 19.5533 15.0164C19.6761 15.1331 19.8207 15.2234 19.9784 15.2818C20.1361 15.3403 20.3037 15.3657 20.4712 15.3566C20.6388 15.3475 20.8028 15.3041 20.9535 15.229C21.1043 15.1538 21.2387 15.0484 21.3487 14.9191C21.4587 14.7898 21.5421 14.6392 21.5939 14.4763C21.6456 14.3134 21.6648 14.1416 21.6501 13.971C21.5701 12.4398 21.1001 11.0873 20.1377 10.0921C19.1702 9.09685 17.8528 8.61199 16.3579 8.53033Z" fill="#f2eddc"/>
</g>
<defs>
<clipPath id="clip0_946_236">
<rect width="30" height="30" fill="white"/>
</clipPath>
</defs>
</svg>
