<svg width="292" height="197" viewBox="0 0 292 197" fill="none" xmlns="http://www.w3.org/2000/svg">
<path d="M61.4128 2H2V195H83.5M61.4128 2H111.606C112.437 8.66667 112.503 21.8 106.126 21C98.1546 20 86.449 7.5 61.4128 2ZM61.4128 2V98M61.4128 98V167.5C61.4128 188.5 77.4418 194.333 83.5 195M61.4128 98H111.606M111.606 195H83.5" stroke="#f2eddc" stroke-width="4" stroke-linecap="round" stroke-linejoin="round"/>
<path d="M289.989 67.0052V24.1723C290.156 17.2855 288.49 3.51175 280.497 3.51175C270.506 3.51175 262.014 2.50392 270.506 14.5979C278.999 26.6919 284.494 40.8016 289.989 67.0052ZM289.989 67.0052V152.671M142.12 129.995V159.726C141.62 170.812 142.42 192.884 149.613 192.48C158.605 191.976 168.097 193.992 169.096 187.945C170.095 181.898 147.116 156.198 142.12 129.995ZM142.12 129.995V42.8172M289.989 152.671V195C284.494 194.664 270.207 191.674 257.018 182.402C243.83 173.13 174.924 85.4822 142.12 42.8172M289.989 152.671C249.025 89.6815 190.077 24.1723 176.09 14.5979C164.9 6.93838 148.781 3.00783 142.12 2V42.8172" stroke="#f2eddc" stroke-width="4" stroke-linejoin="round"/>
</svg>
