<svg width="1137" height="197" viewBox="0 0 1137 197" fill="none" xmlns="http://www.w3.org/2000/svg">
<path d="M63.2137 194.909C34.4285 193.406 14.0692 183.776 4.66745 172.369C-0.699294 165.857 3.69158 18.5982 3.69158 18.5982C4.01687 13.4224 7.59476 2.87047 19.304 2.06906H44.6741C50.6914 1.9021 62.7259 4.97417 62.7259 18.5982C62.7259 32.2221 63.0511 141.815 63.2137 194.909ZM63.2137 194.909C91.6722 196.394 119.146 179.381 123.224 172.87C125.141 169.808 125.224 135.51 124.774 100.031M124.774 100.031C124.267 60.0639 123.083 18.5982 123.083 18.5982C123.246 12.2533 122.106 1.06305 115.759 2.06272H105.506C100.787 3.0624 93.3004 9.46032 101.112 27.0546C108.927 39.2173 124.599 70.8404 124.774 100.031Z" stroke="#f2eddc" stroke-width="4" stroke-linecap="round" stroke-linejoin="round"/>
<path d="M214.413 2H155V195C158.756 195 170.673 195 188.292 195C205.911 195 213.047 176.667 214.413 167.5V88M214.413 2H264.606C265.437 8.66667 265.503 21.8 259.126 21C251.155 20 239.449 7.5 214.413 2ZM214.413 2V88M214.413 88H264.606" stroke="#f2eddc" stroke-width="4" stroke-linecap="round" stroke-linejoin="round"/>
<path d="M921.214 194.909C892.429 193.406 872.069 183.776 862.667 172.369C857.301 165.857 861.692 18.5982 861.692 18.5982C862.017 13.4224 865.595 2.87047 877.304 2.06906H902.674C908.691 1.9021 920.726 4.97417 920.726 18.5982C920.726 32.2221 921.051 141.815 921.214 194.909ZM921.214 194.909C949.672 196.394 977.146 179.381 981.224 172.87C983.141 169.808 983.224 135.51 982.774 100.031M982.774 100.031C982.267 60.0639 981.083 18.5982 981.083 18.5982C981.246 12.2533 980.106 1.06305 973.759 2.06272H963.506C958.787 3.0624 951.3 9.46032 959.112 27.0546C966.927 39.2173 982.599 70.8404 982.774 100.031Z" stroke="#f2eddc" stroke-width="4" stroke-linecap="round" stroke-linejoin="round"/>
<path d="M457.568 173.231C483.224 154.207 485.321 119.051 484.519 105.506H428.212C427.57 108.247 429.752 114.02 443.612 115.181C460.937 116.633 467.675 122.438 465.75 135.499C464.21 145.948 459.654 165.008 457.568 173.231ZM457.568 173.231C438.799 191.614 417.624 195 395.005 195M395.005 195C373.824 195 347.36 180.971 333.404 167.426C319.447 153.881 305.491 129.694 305.01 99.7012C304.528 69.7087 322.335 28.5575 354.579 12.5937C369.602 5.15618 383.939 3.02853 395.005 2.05899M395.005 195C351.21 150.495 354.579 74.03 363.723 42.1025C371.038 16.5605 387.625 5.08683 395.005 2.05899M395.005 2.05899C398.534 1.86183 407.902 2.04803 417.143 4.37003C428.693 7.27253 436.187 9.05432 449.387 18.8824C462.381 28.5574 481.15 50.3261 485 65.8061" stroke="#f2eddc" stroke-width="4" stroke-linecap="round" stroke-linejoin="round"/>
<path d="M747.039 4.01572C721.566 39.886 688.239 124.187 746.749 192.977M669 98.5C669 47.584 702.736 6.57536 744.525 4.1167C731.962 22.2284 717.842 51.5843 713.538 84.9319C709.101 119.311 715.098 157.993 744.032 192.852C702.471 190.101 669 149.215 669 98.5ZM749.402 192.994C719.331 158.446 713.067 119.833 717.505 85.444C721.911 51.3068 736.866 21.3954 749.508 4.00749C792.655 4.6485 828 46.3844 828 98.5C828 150.658 792.597 192.42 749.402 192.994Z" stroke="#f2eddc" stroke-width="4"/>
<path d="M587.904 2C603.717 2.98466 635.642 12.7328 636.84 43.8482C638.338 82.7424 587.904 98.0047 587.904 98.0047C587.904 98.0047 570.527 106.374 570.927 122.129M587.904 2H515V194.994H549.954C565.933 194.6 570.594 179.075 570.927 171.362C571.093 161.515 571.326 137.884 570.927 122.129M587.904 2C582.245 3.64111 570.927 11.2558 570.927 28.5859C570.927 45.0855 570.927 93.241 570.927 118.496M570.927 122.129C570.927 120.981 570.927 119.768 570.927 118.496M570.927 118.496C582.499 120.177 600.932 123.387 615.395 133.275M615.395 133.275C626.741 141.032 635.643 152.899 636.873 171.362C637.206 179.406 637.363 195.355 630.879 194.994C621.889 194.494 619.391 197.994 619.891 178.494C620.29 162.895 617.06 141.849 615.395 133.275Z" stroke="#f2eddc" stroke-width="4" stroke-linejoin="round"/>
<path d="M1085.98 2C1101.81 2.98469 1133.77 12.7332 1134.97 43.8495C1136.47 82.7449 1085.98 98.0077 1085.98 98.0077C1085.98 98.0077 1068.59 106.378 1068.98 122.133M1085.98 2H1013V195H1047.99C1063.99 194.606 1068.65 179.081 1068.98 171.367C1069.15 161.52 1069.38 137.888 1068.98 122.133M1085.98 2C1080.32 3.64116 1068.98 11.2561 1068.98 28.5867C1068.98 45.9173 1068.98 98.1718 1068.98 122.133" stroke="#f2eddc" stroke-width="4" stroke-linejoin="round"/>
</svg>
