<svg width="202" height="30" viewBox="0 0 202 30" fill="none" xmlns="http://www.w3.org/2000/svg">
<path d="M37.1582 28.99H30.2492M30.2492 28.99H29.7557H22.3532V1.89013C23.2932 1.89013 25.5962 1.89013 27.2882 1.89013C28.9802 1.89013 29.9672 3.80912 30.2492 4.76861V28.99ZM60.0001 1.89013H63.8071M76.0036 1.89013H71.9146M71.9146 1.89013V28.99H66.9091C65.8751 28.8262 63.8071 27.979 63.8071 25.9009C63.8071 23.8228 63.8071 9.02783 63.8071 1.89013M71.9146 1.89013H63.8071M106.248 1.89013H99.339M99.339 1.89013H91.161V28.99C91.678 28.99 93.3183 28.99 95.7435 28.99C98.1687 28.99 99.151 26.4157 99.339 25.1286V13.9657M99.339 1.89013V13.9657M99.339 13.9657H105.543M105.543 28.99L108.133 22.882M112.777 11.9297L117.034 1.89013L128.244 28.99H122.533C121.734 29.0602 119.953 28.7934 119.22 27.1646C118.949 26.5629 118.251 24.9273 117.384 22.882M112.777 11.9297L108.133 22.882M112.777 11.9297C113.939 14.7042 115.906 19.3902 117.384 22.882M108.133 22.882H117.384M132.192 21.0566C132.403 23.7011 134.434 28.99 140.863 28.99C143.482 28.99 145.316 28.1128 146.574 26.8942M138.255 1.39868C136.168 2.69049 137.385 5.98553 138.255 7.22585C140.487 9.7299 145.375 15.1873 147.067 16.9846C148.759 18.7819 149.088 20.4481 149.041 21.0566C149.013 22.6241 148.404 25.1207 146.574 26.8942M138.255 1.39868C136.234 1.56249 132.192 3.67338 132.192 8.84061C131.98 9.70649 132.107 11.9438 134.307 13.9657C136.506 15.9877 143.401 23.4272 146.574 26.8942M138.255 1.39868C141.145 0.345576 147.349 0.865108 149.041 9.40226M189.649 1.39868C193.456 2.38157 201.056 6.59399 201 15.5805C200.943 24.5669 193.409 28.2645 189.649 28.99H184.432M189.649 1.39868H179.638V28.99H184.432M189.649 1.39868C188.874 1.6561 187.323 2.77473 187.323 5.18985C187.323 7.60497 187.323 19.9567 187.323 25.8307C187.229 26.8838 186.519 28.99 184.432 28.99M16.2902 1.89013H9.59276M16.2902 28.99H9.59276M9.59276 28.99H1.06228C1.01528 21.9927 0.949483 7.35222 1.06228 4.76861C1.17508 2.185 3.36528 1.77312 4.44627 1.89013H9.59276M9.59276 28.99V14.4572M9.59276 14.4572H16.2902M9.59276 14.4572V1.89013M152.152 28.7196L154.742 22.6116M159.386 11.6593L163.643 1.61974L174.852 28.7196H169.142C168.343 28.7898 166.562 28.523 165.828 26.8942C165.558 26.2926 164.859 24.6569 163.993 22.6116M159.386 11.6593L154.742 22.6116M159.386 11.6593C160.547 14.4338 162.514 19.1198 163.993 22.6116M154.742 22.6116H163.993M43.2212 1.89013V28.99H51.0466V5.26006C51.0701 4.13675 50.5108 1.89013 48.0856 1.89013C45.6604 1.89013 43.8322 1.89013 43.2212 1.89013Z" stroke="#f2eddc" stroke-width="2" stroke-linecap="round" stroke-linejoin="round"/>
<path d="M78.065 15.7264C78.4514 14.8376 79.3373 14.2161 80.3683 14.2161H85.5208C85.1344 15.1049 84.2485 15.7264 83.2175 15.7264H78.065Z" stroke="#f2eddc" stroke-width="2" stroke-linecap="round" stroke-linejoin="round"/>
</svg>
