<svg width="179" height="32" viewBox="0 0 179 32" fill="none" xmlns="http://www.w3.org/2000/svg">
<path d="M10.661 30.8454C4.97619 30.6599 2.09735 28.3465 1.36853 27.213C0.587647 25.7446 1.29044 7.3509 1.29044 4.02766C1.29044 1.36907 2.90426 0.962029 3.71117 1.09083C4.43999 1.09083 6.3974 1.09083 8.39645 1.09083C10.3955 1.09083 10.7391 2.79109 10.661 3.64123V30.8454ZM10.661 30.8454C13.0557 30.8197 19.7192 29.5316 20.1877 27.213C20.6563 24.8945 20.1877 13.9201 20.1877 13.9201M20.1877 13.9201V9.824C20.3439 6.9387 20.3127 1.15266 18.9383 1.09083C17.2204 1.01355 15.1901 0.936263 16.1272 3.64123C17.0642 6.34619 19.7973 9.43758 20.1877 13.9201ZM34.2436 1.09083H25.0292V30.8454H29.7145C31.2242 30.9227 34.2436 30.2117 34.2436 26.7493C34.2436 23.287 34.2436 17.0115 34.2436 14.3065M34.2436 1.09083H42.1305C42.3647 2.48195 42.3647 4.9396 40.4906 3.64123C38.6165 2.34285 35.545 1.39998 34.2436 1.09083ZM34.2436 1.09083V14.3065M34.2436 14.3065H42.1305M72.1944 27.4449C73.9904 22.6533 74.9274 18.6345 70.945 18.6345C67.759 18.6345 67.431 17.604 67.6653 17.0888H76.333C76.5829 23.0242 73.678 26.466 72.1944 27.4449ZM72.1944 27.4449C71.2052 28.6299 67.8683 31 62.4334 31M62.4334 31C55.6397 31 51.1887 24.9718 50.7202 24.199C50.2516 23.4261 47.6747 18.3253 48.5337 14.3065C49.3927 10.2877 50.2516 7.89191 53.4532 4.49137C56.0145 1.77094 60.5072 1.09083 62.4334 1.09083M62.4334 31C52.0477 18.6345 56.1082 6.50077 62.4334 1.09083M62.4334 1.09083C63.804 1.01547 66.2117 1.20819 68.5242 2.11163M68.5242 2.11163C70.1643 2.75237 71.7566 3.7506 72.8972 5.26422C73.2616 5.80521 73.8561 7.0282 73.7561 7.27362C73.5858 7.69155 72.2725 9.28302 71.3354 7.27362C70.3983 5.26422 72.3505 4.52354 68.5242 2.11163ZM89.9203 19.0982V26.7493C90.2327 30.1499 87.7599 31 86.4845 31H81.1745V1.09083H92.8096M89.9203 19.0982C91.3694 19.1579 94.2748 19.6335 96.5578 20.9892M89.9203 19.0982C89.8423 18.145 90.6075 16.0377 94.2933 15.2339C98.9005 14.2292 101.946 9.28302 99.7594 5.26422C98.0103 2.04918 94.3974 1.14236 92.8096 1.09083M89.9203 19.0982C89.9203 15.6719 89.9203 8.10829 89.9203 5.26422C89.9203 2.42014 91.8465 1.29693 92.8096 1.09083M96.5578 20.9892C97.2276 21.387 97.8437 21.8604 98.3538 22.4214C99.1087 23.2715 100.54 25.791 100.228 29.0679C100.15 29.7119 99.7907 31 98.9786 31C97.9634 31 97.4949 31 97.4949 29.6862C97.4949 28.3723 98.4262 21.8756 96.5578 20.9892ZM117.407 1.09083C113.529 1.16812 105.616 4.29043 104.991 16.1613C105.148 20.9015 107.802 30.4435 117.173 30.6909M117.407 1.09083C128.902 1.95641 130.63 12.3744 130.058 17.4752C129.667 21.9835 126.544 30.9382 117.173 30.6909M117.407 1.09083C113.477 6.52652 107.927 20.0565 117.173 30.6909M144.504 30.8454C140.131 31.0309 136.643 28.6042 135.446 27.3676C134.764 26.7494 134.899 6.19162 135.446 3.56394C135.992 0.936263 136.773 1.01356 140.99 1.01356C144.363 1.01356 144.504 3.24125 144.504 4.3368V30.8454ZM144.504 30.8454C149.97 30.6136 153.172 28.4496 154.031 27.3676C154.89 26.2856 154.031 13.4564 154.031 13.4564M154.031 13.4564V4.3368C154.161 3.28058 154.015 1.13722 152.391 1.01356C150.36 0.858992 149.189 2.01826 150.517 4.87779C151.844 7.73732 153.094 8.35559 154.031 13.4564ZM170.195 1.01356H158.95V30.8454H163.948C166.915 31 167.462 28.9906 167.696 27.9086C167.93 26.8266 167.852 22.3441 167.696 19.4846M170.195 1.01356C172.381 1.06508 176.973 2.17282 177.847 6.19162C178.941 11.2151 173.943 15.2339 169.726 16.2386C168.997 16.3674 167.571 17.1969 167.696 19.4846M170.195 1.01356C169.362 1.32269 167.696 2.6829 167.696 5.65063C167.696 8.61836 167.696 16.1098 167.696 19.4846" stroke="#402E21" stroke-width="2" stroke-linecap="round" stroke-linejoin="round"/>
</svg>
