<svg width="1141" height="201" viewBox="0 0 1141 201" fill="none" xmlns="http://www.w3.org/2000/svg">
<path d="M65.2137 196.909C36.4285 195.406 16.0692 185.776 6.66745 174.369C1.30071 167.857 5.69158 20.5982 5.69158 20.5982C6.01687 15.4224 9.59476 4.87047 21.304 4.06906H46.6741C52.6914 3.9021 64.7259 6.97417 64.7259 20.5982C64.7259 34.2221 65.0511 143.815 65.2137 196.909ZM65.2137 196.909C93.6722 198.394 121.146 181.381 125.224 174.87C127.141 171.808 127.224 137.51 126.774 102.031M126.774 102.031C126.267 62.0639 125.083 20.5982 125.083 20.5982C125.246 14.2533 124.106 3.06305 117.759 4.06272H107.506C102.787 5.0624 95.3004 11.4603 103.112 29.0546C110.927 41.2173 126.599 72.8404 126.774 102.031Z" stroke="#402E21" stroke-width="8" stroke-linecap="round" stroke-linejoin="round"/>
<path d="M216.413 4H157V197C160.756 197 172.673 197 190.292 197C207.911 197 215.047 178.667 216.413 169.5V90M216.413 4H266.606C267.437 10.6667 267.503 23.8 261.126 23C253.155 22 241.449 9.5 216.413 4ZM216.413 4V90M216.413 90H266.606" stroke="#402E21" stroke-width="8" stroke-linecap="round" stroke-linejoin="round"/>
<path d="M923.214 196.909C894.429 195.406 874.069 185.776 864.667 174.369C859.301 167.857 863.692 20.5982 863.692 20.5982C864.017 15.4224 867.595 4.87047 879.304 4.06906H904.674C910.691 3.9021 922.726 6.97417 922.726 20.5982C922.726 34.2221 923.051 143.815 923.214 196.909ZM923.214 196.909C951.672 198.394 979.146 181.381 983.224 174.87C985.141 171.808 985.224 137.51 984.774 102.031M984.774 102.031C984.267 62.0639 983.083 20.5982 983.083 20.5982C983.246 14.2533 982.106 3.06305 975.759 4.06272H965.506C960.787 5.0624 953.3 11.4603 961.112 29.0546C968.927 41.2173 984.599 72.8404 984.774 102.031Z" stroke="#402E21" stroke-width="8" stroke-linecap="round" stroke-linejoin="round"/>
<path d="M459.568 175.231C485.224 156.207 487.321 121.051 486.519 107.506H430.212C429.57 110.247 431.752 116.02 445.612 117.181C462.937 118.633 469.675 124.438 467.75 137.499C466.21 147.948 461.654 167.008 459.568 175.231ZM459.568 175.231C440.799 193.614 419.624 197 397.005 197M397.005 197C375.824 197 349.36 182.971 335.404 169.426C321.447 155.881 307.491 131.694 307.01 101.701C306.528 71.7087 324.335 30.5575 356.579 14.5937C371.602 7.15618 385.939 5.02853 397.005 4.05899M397.005 197C353.21 152.495 356.579 76.03 365.723 44.1025C373.038 18.5605 389.625 7.08683 397.005 4.05899M397.005 4.05899C400.534 3.86183 409.902 4.04803 419.143 6.37003C430.693 9.27253 438.187 11.0543 451.387 20.8824C464.381 30.5574 483.15 52.3261 487 67.8061" stroke="#402E21" stroke-width="8" stroke-linecap="round" stroke-linejoin="round"/>
<path d="M828 100.5C828 152.246 792.695 193 750.5 193C708.305 193 673 152.246 673 100.5C673 48.7537 708.305 8 750.5 8C792.695 8 828 48.7537 828 100.5Z" stroke="#402E21" stroke-width="8"/>
<path d="M589.904 4C605.717 4.98466 637.642 14.7328 638.84 45.8482C640.338 84.7424 589.904 100.005 589.904 100.005C589.904 100.005 572.527 108.374 572.927 124.129M589.904 4H517V196.994H551.954C567.933 196.6 572.594 181.075 572.927 173.362C573.093 163.515 573.326 139.884 572.927 124.129M589.904 4C584.245 5.64111 572.927 13.2558 572.927 30.5859C572.927 47.0855 572.927 95.241 572.927 120.496M572.927 124.129C572.927 122.981 572.927 121.768 572.927 120.496M572.927 120.496C584.499 122.177 602.932 125.387 617.395 135.275M617.395 135.275C628.741 143.032 637.643 154.899 638.873 173.362C639.206 181.406 639.363 197.355 632.879 196.994C623.889 196.494 621.391 199.994 621.891 180.494C622.29 164.895 619.06 143.849 617.395 135.275Z" stroke="#402E21" stroke-width="8" stroke-linejoin="round"/>
<path d="M1087.98 4C1103.81 4.98469 1135.77 14.7332 1136.97 45.8495C1138.47 84.7449 1087.98 100.008 1087.98 100.008C1087.98 100.008 1070.59 108.378 1070.98 124.133M1087.98 4H1015V197H1049.99C1065.99 196.606 1070.65 181.081 1070.98 173.367C1071.15 163.52 1071.38 139.888 1070.98 124.133M1087.98 4C1082.32 5.64116 1070.98 13.2561 1070.98 30.5867C1070.98 47.9173 1070.98 100.172 1070.98 124.133" stroke="#402E21" stroke-width="8" stroke-linejoin="round"/>
</svg>
