<svg width="318" height="197" viewBox="0 0 318 197" fill="none" xmlns="http://www.w3.org/2000/svg">
<path d="M155 194.929L173.369 151.445M206.307 73.4736L236.5 2L316 194.929H275.5C269.833 195.428 257.2 193.529 252 181.933C250.079 177.65 245.125 166.006 238.983 151.445M206.307 73.4736L173.369 151.445M206.307 73.4736C214.546 93.2255 228.496 126.586 238.983 151.445M173.369 151.445H238.983" stroke="#402E21" stroke-width="4" stroke-linecap="round" stroke-linejoin="round"/>
<path d="M63.2137 194.909C34.4285 193.406 14.0692 183.776 4.66745 172.369C-0.699294 165.857 3.69158 18.5982 3.69158 18.5982C4.01687 13.4224 7.59476 2.87047 19.304 2.06906H44.6741C50.6914 1.9021 62.7259 4.97417 62.7259 18.5982C62.7259 32.2221 63.0511 141.815 63.2137 194.909ZM63.2137 194.909C91.6722 196.394 119.146 179.381 123.224 172.87C125.141 169.808 125.224 135.51 124.774 100.031M124.774 100.031C124.267 60.0639 123.083 18.5982 123.083 18.5982C123.246 12.2533 122.106 1.06305 115.759 2.06272H105.506C100.787 3.0624 93.3004 9.46032 101.112 27.0546C108.927 39.2173 124.599 70.8404 124.774 100.031Z" stroke="#402E21" stroke-width="4" stroke-linecap="round" stroke-linejoin="round"/>
</svg>
